<?xml version="1.0" standalone="no"?><!DOCTYPE svg PUBLIC "-//W3C//DTD SVG 1.1//EN" "http://www.w3.org/Graphics/SVG/1.1/DTD/svg11.dtd"><svg t="1676454345724" class="icon" viewBox="0 0 1024 1024" version="1.1" xmlns="http://www.w3.org/2000/svg" p-id="1848" xmlns:xlink="http://www.w3.org/1999/xlink" width="200" height="200"><path d="M512 28.444444a483.555556 483.555556 0 0 1 353.792 813.226667 28.444444 28.444444 0 1 1-41.642667-38.798222 426.666667 426.666667 0 1 0-325.973333 135.566222L512 938.666667h410.168889a28.444444 28.444444 0 0 1 5.12 56.433777l-5.12 0.455112H512a483.555556 483.555556 0 1 1 0-967.111112z"  p-id="1849"></path><path d="M512 170.666667a113.777778 113.777778 0 1 1 0 227.555555 113.777778 113.777778 0 0 1 0-227.555555z m0 56.888889a56.888889 56.888889 0 1 0 0 113.777777 56.888889 56.888889 0 0 0 0-113.777777zM512 625.777778a113.777778 113.777778 0 1 1 0 227.555555 113.777778 113.777778 0 0 1 0-227.555555z m0 56.888889a56.888889 56.888889 0 1 0 0 113.777777 56.888889 56.888889 0 0 0 0-113.777777z" p-id="1850"></path><path d="M512 512m-56.888889 0a56.888889 56.888889 0 1 0 113.777778 0 56.888889 56.888889 0 1 0-113.777778 0Z"  p-id="1851"></path><path d="M284.444444 398.222222a113.777778 113.777778 0 1 1 0 227.555556 113.777778 113.777778 0 0 1 0-227.555556z m0 56.888889a56.888889 56.888889 0 1 0 0 113.777778 56.888889 56.888889 0 0 0 0-113.777778zM739.555556 398.222222a113.777778 113.777778 0 1 1 0 227.555556 113.777778 113.777778 0 0 1 0-227.555556z m0 56.888889a56.888889 56.888889 0 1 0 0 113.777778 56.888889 56.888889 0 0 0 0-113.777778z"></path></svg>